PathFileType	4	(X/Y/Z)	OpenSim_Sub04_EMGBaseline_Gyro.trc
DataRate	CameraRate	NumFrames	NumMarkers	Units	OrigDataRate	OrigDataStartFrame	OrigNumFrames
100	100	37	8	m	100	2978	7941
Frame#	Time	torso_imu_offset_imu	pelvis_imu_offset_imu	tibia_r_imu_offset_imu	femur_r_imu_offset_imu	tibia_l_imu_offset_imu	femur_l_imu_offset_imu	toes_r_imu_offset_imu	toes_l_imu_offset_imu
				X1	Y1	Z1	X2	Y2	Z2	X3	Y3	Z3	X4	Y4	Z4	X5	Y5	Z5	X6	Y6	Z6	X7	Y7	Z7	X8		Y8	Z8	

2978	29.77000000	-0.16354128	-0.23454016	0.14008730	0.08524738	-0.24384651	-0.18857462	0.12843527	-0.66950141	-1.23495219	-0.45552952	-0.41835520	-0.07286952	0.10937715	-0.36784519	2.30113726	-0.28052091	1.16047046	-0.88032376	0.23230786	-0.19106928	0.04116460	0.98840661	-4.40942572	0.88366767
2979	29.78000000	-0.20131535	-0.24437745	0.16309635	0.17393125	-0.17920038	-0.22995761	-0.00750164	-0.67824369	-1.17063796	-0.89069701	-0.24023287	-0.31889361	0.09452946	-0.39111651	2.34277044	-0.22928721	1.30170120	-0.99381426	0.18346298	-0.19080086	0.02826085	0.92680339	-4.67228837	0.98700923
2980	29.79000000	-0.22190887	-0.23663534	0.16802505	0.27003900	-0.10587163	-0.24415544	-0.06450589	-0.55485856	-0.96375850	-1.26159408	-0.15555580	-0.58343304	0.09701657	-0.37208074	2.35803666	-0.16915018	1.36731431	-1.09118470	0.17641667	-0.12646295	0.02559582	1.34023664	-4.84930289	0.97029647
2981	29.80000000	-0.25021127	-0.23779870	0.16462587	0.36237460	-0.03416266	-0.25890139	-0.13754104	-0.39371611	-0.73451084	-1.50038609	-0.22946247	-0.79898076	0.10557884	-0.34149753	2.39577601	-0.10665075	1.35568141	-1.20514305	0.14013748	-0.09153450	0.01026962	1.70824330	-4.70203735	0.99737539
2982	29.81000000	-0.29139340	-0.21814988	0.18069985	0.41455737	0.02290968	-0.24967816	-0.17581598	-0.31734682	-0.58969029	-1.64505164	-0.38182376	-0.94091034	-0.04551132	-0.33024246	2.47307587	-0.04467034	1.30517424	-1.34944558	0.16212144	-0.08797170	-0.00601196	1.48380202	-4.67379301	1.27106733
2983	29.82000000	-0.32320535	-0.18363970	0.20899331	0.43009771	0.06344950	-0.22651316	-0.19945029	-0.32731780	-0.49783037	-1.64710593	-0.46822329	-1.01252890	-0.21689617	-0.30518566	2.47848518	0.02858823	1.25526234	-1.50012379	0.18414090	-0.06275159	-0.02681260	1.67709914	-4.51858544	1.45569643
2984	29.83000000	-0.33824250	-0.17289685	0.24345344	0.41575617	0.08008505	-0.19264174	-0.26565124	-0.34121159	-0.45194142	-1.49436029	-0.43993478	-0.99630913	-0.34412167	-0.29843264	2.39124244	0.08396755	1.20000008	-1.60012066	0.21017375	-0.03555919	-0.05337319	1.70460175	-4.14964479	1.66524206
2985	29.84000000	-0.39465832	-0.15603074	0.26450523	0.36639675	0.08320748	-0.16439190	-0.25513665	-0.33903853	-0.47712411	-1.21468256	-0.33327024	-0.94375371	-0.41606169	-0.29143957	2.26196277	0.11949140	1.11544604	-1.64208133	0.21416074	-0.00865355	-0.08089341	2.04369796	-3.90076817	1.82614325
2986	29.85000000	-0.43689010	-0.12986313	0.28994000	0.28989023	0.07813143	-0.13767230	-0.19040170	-0.32848565	-0.53761713	-0.83015423	-0.20058950	-0.90470106	-0.47121992	-0.29041120	2.10076762	0.08375705	1.00971087	-1.64738545	0.21352292	-0.00752599	-0.10526573	2.49747056	-3.46767948	1.78901829
2987	29.86000000	-0.45040653	-0.10388345	0.31909997	0.21286498	0.07663030	-0.12833009	-0.09302168	-0.32985563	-0.60008494	-0.39969884	-0.15164151	-0.82130776	-0.55662117	-0.23397466	1.93532443	-0.02977969	0.91534132	-1.60786230	0.25648261	0.01859189	-0.14782137	3.00259285	-3.04834248	1.74100759
2988	29.87000000	-0.45170123	-0.08203577	0.34594070	0.14486952	0.09569933	-0.11733794	0.03629056	-0.31008402	-0.61930663	-0.03855163	-0.21692574	-0.72576678	-0.56948178	-0.19925976	1.77462709	-0.12806969	0.83932057	-1.56254121	0.30335587	0.03731754	-0.20102434	3.79054498	-2.46849023	1.53699577
2989	29.88000000	-0.44315615	-0.06425850	0.36741552	0.09285079	0.11935138	-0.10250478	0.20990985	-0.30656546	-0.55971579	0.19707396	-0.33630986	-0.65146948	-0.29502193	-0.28671508	1.59834223	-0.17523742	0.78179165	-1.54691166	0.34166359	0.10935799	-0.25422408	3.00860327	-1.17182073	1.15272764
2990	29.89000000	-0.44147091	-0.04086755	0.37819955	0.07642369	0.13858437	-0.07438338	0.37654567	-0.28427621	-0.47247950	0.31570320	-0.43378191	-0.60640388	0.17843970	-0.42013421	1.41030264	-0.19174217	0.72905670	-1.56101931	0.35950725	0.15909874	-0.29450546	-0.21532350	0.36412776	1.13026033
2991	29.90000000	-0.43618357	-0.02363930	0.39625474	0.07252245	0.15571282	-0.05353994	0.48473135	-0.22188577	-0.39317045	0.35940953	-0.48665914	-0.63782514	0.45346536	-0.59693348	1.14511124	-0.18932092	0.60864193	-1.59074453	0.37670289	0.20512094	-0.31838295	-1.11372561	0.95729105	1.11627339
2992	29.91000000	-0.43545727	-0.00592072	0.41349312	0.11067721	0.17220552	-0.04761025	0.66049254	-0.17512974	-0.36430273	0.38628778	-0.51422337	-0.71720899	0.63714942	-0.77210549	0.72401233	-0.22352082	0.45043630	-1.58582731	0.34168512	0.21861915	-0.31046337	-1.30090321	1.02924325	1.05897293
2993	29.92000000	-0.47218155	0.02316738	0.43050863	0.17608824	0.18600599	-0.04582340	0.81319658	-0.18720886	-0.38115240	0.42774285	-0.51698673	-0.80268561	0.73152915	-0.66005706	0.12780096	-0.25254061	0.31523191	-1.57212363	0.30872445	0.24645884	-0.29692321	-1.26059132	1.33644785	0.82595435
2994	29.93000000	-0.50174281	0.02509431	0.44450855	0.24082489	0.19194918	-0.06111811	0.81143169	-0.18570546	-0.42206588	0.44225380	-0.54167785	-0.86727196	0.72936295	-0.40592393	-0.52721159	-0.20929682	0.23055273	-1.57717113	0.27451681	0.25477663	-0.28914458	-0.93060279	1.82481117	0.42449932
2995	29.94000000	-0.52425943	0.01313328	0.47220781	0.32440270	0.20035316	-0.07859708	0.83061848	-0.20605580	-0.45530920	0.39076846	-0.57044331	-0.90024534	0.47256524	-0.19092708	-1.10576979	-0.09544502	0.20109490	-1.57625900	0.25594256	0.25850687	-0.29027742	-0.74532217	2.32568917	0.05267050
2996	29.95000000	-0.56555954	0.01042098	0.49345739	0.37715592	0.20230336	-0.09886444	0.80401547	-0.19289883	-0.45641204	0.29302316	-0.55860880	-0.90091179	0.06928357	-0.03406671	-1.58137560	0.05047725	0.22183027	-1.52401889	0.22320552	0.25130925	-0.27906697	-0.68494217	2.75468185	-0.19752190
2997	29.96000000	-0.59725464	0.02397667	0.50521077	0.41311495	0.19218786	-0.11585195	0.73084433	-0.16877290	-0.45197550	0.19098908	-0.49014556	-0.85647059	-0.26285446	0.07494276	-1.94947139	0.12812785	0.23716838	-1.43244298	0.20430726	0.21733520	-0.27750301	-0.61876709	3.11095160	-0.37112745
2998	29.97000000	-0.62324683	0.05495184	0.51569921	0.44434507	0.16916424	-0.12740097	0.66743734	-0.20114880	-0.45799084	0.10330472	-0.40372633	-0.78563673	-0.33825353	0.14460319	-2.28670476	0.10812153	0.23073226	-1.31982760	0.17821027	0.19752976	-0.26334348	-0.52999168	3.52046614	-0.54304451
2999	29.98000000	-0.62830584	0.08476625	0.52456148	0.45464332	0.13859250	-0.14247961	0.60839993	-0.18171492	-0.47349512	0.02861095	-0.32297853	-0.71588063	-0.06260741	0.15115984	-2.59866613	0.05769921	0.21747034	-1.20142228	0.12310129	0.16657065	-0.22373668	-0.38442565	3.95250805	-0.72701257
3000	29.99000000	-0.61843088	0.10608157	0.52712172	0.45125374	0.11268557	-0.15117167	0.51337613	-0.16421420	-0.50697650	-0.04854980	-0.25680109	-0.68857926	0.30222759	0.16103830	-2.87478139	0.00419958	0.20496240	-1.11370361	0.07937510	0.09962928	-0.17715195	-0.18250721	4.26368102	-0.88217590
3001	30	-0.60815711	0.12765032	0.52395586	0.43775078	0.10271777	-0.16004947	0.35934750	-0.17288334	-0.54090632	-0.11444693	-0.22865219	-0.68031834	0.58392450	0.20440807	-3.16047063	-0.05749481	0.19811353	-1.03183259	0.06887320	0.05593276	-0.17068103	0.00761754	4.39347859	-0.99700977
3002	30.01000000	-0.58851165	0.13266278	0.50835810	0.40752484	0.09891821	-0.18552435	0.27044732	-0.17642886	-0.55485345	-0.14997097	-0.23944835	-0.67533671	0.76816853	0.24164007	-3.45938614	-0.11210034	0.17810748	-0.95118645	0.06903019	0.04259039	-0.17064759	0.13649193	4.41395534	-1.10739869
3003	30.02000000	-0.56336014	0.12717326	0.48294507	0.38166388	0.11701156	-0.18931970	0.18333735	-0.16422668	-0.55792180	-0.17563576	-0.26090502	-0.68289832	0.81231591	0.26706461	-3.75967056	-0.17795018	0.15438152	-0.87562656	0.05777249	0.01469278	-0.17009125	0.16807270	4.40758749	-1.23049429
3004	30.03000000	-0.54552557	0.12206246	0.45186025	0.38016135	0.14761128	-0.19142619	0.15569877	-0.14394253	-0.55172061	-0.19361478	-0.28746981	-0.70789046	0.77413586	0.29789784	-4.04206985	-0.24562976	0.13198792	-0.76623068	0.05539018	0.00154058	-0.16143595	0.14465778	4.41803599	-1.36533876
3005	30.04000000	-0.54351543	0.12531677	0.41977754	0.37494624	0.19647440	-0.19866526	0.12137419	-0.14506727	-0.54322352	-0.17600773	-0.29548099	-0.69600124	0.68320918	0.32686009	-4.29175141	-0.30969174	0.09752487	-0.66984055	0.04712766	-0.00634044	-0.15643082	0.08918116	4.41519296	-1.47609788
3006	30.05000000	-0.54093799	0.13390812	0.38676974	0.37422975	0.24746481	-0.19382509	0.08867724	-0.14708762	-0.53640383	-0.12729540	-0.28608595	-0.71808900	0.51012431	0.40058893	-4.51041569	-0.35473196	0.04282412	-0.56359839	0.03230433	-0.04030677	-0.16452002	-0.07251523	4.34109913	-1.54782100
3007	30.06000000	-0.53525589	0.12877143	0.35443340	0.36493875	0.28592701	-0.18997050	0.05306083	-0.13363962	-0.54205055	-0.04672409	-0.25720022	-0.75375188	0.18215718	0.54630625	-4.69025433	-0.35930381	-0.01766248	-0.45185472	0.02114014	-0.03464729	-0.15941813	-0.27568928	4.18187065	-1.57984818
3008	30.07000000	-0.53079407	0.10881209	0.33641900	0.35716304	0.31372346	-0.16105157	0.04031272	-0.13450448	-0.56219258	0.04504999	-0.21298716	-0.81154666	-0.20261899	0.71918970	-4.80839423	-0.32327394	-0.06378319	-0.33613465	0.00779761	-0.06081100	-0.15816626	-0.37696772	3.97642057	-1.60254591
3009	30.08000000	-0.52604398	0.09719652	0.32414559	0.34510554	0.32993426	-0.13384272	0.04306881	-0.13030034	-0.58863749	0.13683666	-0.17472640	-0.86704076	-0.49017117	0.88405039	-4.86989113	-0.19719783	-0.11633635	-0.17599926	0.00940385	-0.09140310	-0.17918978	-0.29276040	3.83838984	-1.72523042
3010	30.09000000	-0.51284857	0.08969562	0.30421315	0.30395853	0.31771653	-0.12084542	0.05606388	-0.14863448	-0.61621636	0.24317284	-0.15399196	-0.91260756	-0.64593165	0.97992386	-4.90577209	-0.03657201	-0.18448803	-0.01974566	0.01021762	-0.12042030	-0.19181358	-0.18095231	3.83221306	-1.93232396
3011	30.10000000	-0.50312852	0.07592253	0.28795808	0.25641473	0.29057191	-0.09284887	0.04780546	-0.14973041	-0.65055832	0.33242961	-0.14377353	-0.92544640	-0.63321455	1.02017432	-4.91583259	0.10989293	-0.24687132	0.09404983	0.01345977	-0.14456180	-0.20300925	-0.39246429	3.86341176	-2.05721443
3012	30.11000000	-0.47643223	0.05973411	0.26765808	0.18836258	0.24544329	-0.07823648	0.02238956	-0.14385141	-0.68343027	0.38293898	-0.13581904	-0.90522252	-0.64926890	1.05994697	-4.84858779	0.27261036	-0.27471309	0.20703855	-0.00261797	-0.19247677	-0.20429447	-0.90207513	3.72140237	-2.01796447
3013	30.12000000	-0.43719416	0.05054914	0.24482556	0.12375145	0.19219746	-0.06980025	0.01844491	-0.12689891	-0.72106011	0.38479986	-0.13166177	-0.86135538	-0.77966991	1.11036256	-4.73229943	0.46626407	-0.23841451	0.32341062	0.00735685	-0.21819713	-0.21541525	-1.40929570	3.43425444	-1.92451645
3014	30.13000000	-0.38692547	0.04703413	0.22036503	0.05241704	0.14221973	-0.06290539	0.00557122	-0.11311635	-0.74149028	0.36482159	-0.13872816	-0.81850255	-0.87075586	1.20059671	-4.64275766	0.67797335	-0.16473129	0.39736807	0.01710855	-0.26060640	-0.23777670	-1.73954583	3.10344281	-1.88513753
